<svg xmlns="http://www.w3.org/2000/svg" xmlns:xlink="http://www.w3.org/1999/xlink" width="375.691" height="169.33" viewBox="0 0 375.691 169.33">
  <defs>
    <clipPath id="clip-path">
      <rect x="80" y="56" width="375.691" height="169.33" fill="none"/>
    </clipPath>
    <linearGradient id="linear-gradient" x1="0.191" y1="0.86" x2="0.557" y2="0.395" gradientUnits="objectBoundingBox">
      <stop offset="0"/>
      <stop offset="1" stop-color="#fff"/>
    </linearGradient>
  </defs>
  <g id="Scroll_Group_10" data-name="Scroll Group 10" transform="translate(-80 -56)" clip-path="url(#clip-path)" style="isolation: isolate">
    <g id="Group_86" data-name="Group 86" transform="matrix(0.995, -0.105, 0.105, 0.995, 68.723, -473.813)">
      <path id="Path_41" data-name="Path 41" d="M57.555.46A56.8,56.8,0,0,1,97.21,25.493c15.131,23.32,12.456,56.788,32.879,75.646,15.39,14.212,38.527,14.938,59.472,14.673s43.968-.013,59.86,13.635c17.011,14.608,19.824,41.6,9.835,61.679s-30.418,33.477-52.021,39.482-44.463,5.454-66.811,3.621C101.97,231.076,61.2,222.966,33.842,195.756,11,173.036,1.02,139.874.083,107.67-.7,80.961,4.136,54.508,9.828,28.526,12.5,16.344,13.74,11.6,25.325,5.9A56.7,56.7,0,0,1,57.555.46Z" transform="translate(-97.399 577.763) rotate(2)" fill="#ecc599"/>
      <path id="Path_43" data-name="Path 43" d="M70.731.566a69.8,69.8,0,0,1,48.732,30.763c18.595,28.659,15.308,69.788,40.405,92.964,18.913,17.466,47.346,18.358,73.087,18.031s54.033-.016,73.564,16.756c20.906,17.952,24.363,51.129,12.086,75.8s-37.381,41.14-63.93,48.521-54.642,6.7-82.106,4.45c-47.256-3.875-97.363-13.842-130.981-47.281C13.519,212.648,1.253,171.9.1,132.319-.854,99.495,5.083,66.986,12.078,35.057c3.28-14.971,4.807-20.8,19.045-27.809A69.685,69.685,0,0,1,70.731.566Z" transform="translate(-91.774 532.911) rotate(2)" fill="#f8eab0" opacity="0.52"/>
      <path id="Path_42" data-name="Path 42" d="M92.684,31.238c2.9,11.476.671,24.146,5.63,34.893,5.986,12.975,20.55,19.36,34.125,23.818s28.34,8.719,37.194,19.934c9.227,11.686,10.178,28.874,21.067,39.03,11.4,10.63,29.127,9.572,44.516,7.109s32.375-5.369,45.581,2.907c15.937,9.987,19.088,33.421,10.882,50.345s-24.841,28.189-41.932,36.037c-58.06,26.66-130.51,20.431-181.812-17.646S-10.371,120.556,3.707,58.239C7.535,41.3,14.248,16.836,28.68,5.517c11.284-8.851,32.794-5.824,44.39.492A40.411,40.411,0,0,1,92.684,31.238Z" transform="translate(-112.839 553.424) rotate(2)" opacity="0.85" fill="url(#linear-gradient)" style="mix-blend-mode: overlay;isolation: isolate"/>
      <path id="Path_44" data-name="Path 44" d="M113.9,38.389c3.56,14.1.824,29.673,6.918,42.882,7.356,15.946,25.255,23.792,41.938,29.271s34.828,10.715,45.709,24.5c11.339,14.361,12.508,35.484,25.89,47.965,14.007,13.063,35.8,11.763,54.707,8.737s39.786-6.6,56.015,3.573c19.585,12.274,23.458,41.072,13.374,61.87s-30.528,34.643-51.532,44.287c-71.351,32.763-160.388,25.108-223.433-21.686S-12.745,148.155,4.556,71.572c4.7-20.823,12.954-50.881,30.69-64.792C49.114-4.1,75.548-.377,89.8,7.384A49.662,49.662,0,0,1,113.9,38.389Z" transform="translate(-110.749 503) rotate(2)" opacity="0.39" fill="url(#linear-gradient)" style="mix-blend-mode: overlay;isolation: isolate"/>
    </g>
  </g>
</svg>
