<svg xmlns="http://www.w3.org/2000/svg" xmlns:xlink="http://www.w3.org/1999/xlink" width="264.4" height="314.434" viewBox="0 0 264.4 314.434">
  <defs>
    <clipPath id="clip-path">
      <rect y="187" width="264.4" height="314.434" fill="none"/>
    </clipPath>
    <linearGradient id="linear-gradient" x1="0.191" y1="0.86" x2="0.557" y2="0.395" gradientUnits="objectBoundingBox">
      <stop offset="0"/>
      <stop offset="1" stop-color="#fff"/>
    </linearGradient>
  </defs>
  <g id="Scroll_Group_11" data-name="Scroll Group 11" transform="translate(0 -187)" clip-path="url(#clip-path)" style="isolation: isolate">
    <g id="Group_87" data-name="Group 87" transform="translate(454.059 989.473) rotate(178)" opacity="0.73">
      <path id="Path_41" data-name="Path 41" d="M320.566,265.546a82.109,82.109,0,0,1,57.326,36.189c21.874,33.713,18.007,82.1,47.531,109.358,22.248,20.546,55.7,21.6,85.976,21.211s63.562-.019,86.537,19.711c24.592,21.118,28.659,60.145,14.218,89.166s-43.973,48.4-75.2,57.077-64.278,7.885-96.586,5.235c-55.59-4.559-114.534-16.283-154.08-55.619-33.021-32.845-47.45-80.785-48.8-127.341-1.124-38.613,5.86-76.854,14.089-114.415,3.859-17.611,5.655-24.462,22.4-32.714A81.974,81.974,0,0,1,320.566,265.546Z" transform="translate(-314.422 338.078) rotate(2)" fill="#ecc599"/>
      <path id="Path_43" data-name="Path 43" d="M102.252.818A100.906,100.906,0,0,1,172.7,45.291c26.881,41.43,22.13,100.89,58.412,134.393,27.341,25.249,68.446,26.539,105.658,26.067s78.113-.023,106.347,24.224c30.222,25.952,35.22,73.914,17.472,109.579s-54.04,59.475-92.42,70.144-78.993,9.69-118.7,6.434c-68.316-5.6-140.753-20.011-189.352-68.352C19.544,307.415,1.811,248.5.147,191.287c-1.382-47.452,7.2-94.448,17.315-140.607,4.742-21.643,6.949-30.063,27.532-40.2A100.74,100.74,0,0,1,102.252.818Z" transform="translate(-78.318 546.24) rotate(2)" fill="#f8eab0" opacity="0.52"/>
      <path id="Path_42" data-name="Path 42" d="M356.321,288.082c4.187,16.59.969,34.906,8.138,50.444,8.654,18.758,29.708,27.987,49.333,34.433s40.97,12.6,53.77,28.817c13.339,16.894,14.714,41.742,30.455,56.424,16.477,15.367,42.108,13.837,64.355,10.278s46.8-7.761,65.894,4.2C651.306,487.12,655.862,521,644,545.463s-35.911,40.752-60.62,52.1C499.445,636.1,394.707,627.1,320.543,572.05S207.34,417.2,227.692,327.116c5.534-24.5,15.239-59.854,36.1-76.219,16.313-12.8,47.409-8.419,64.173.711A58.42,58.42,0,0,1,356.321,288.082Z" transform="translate(-322.49 325.361) rotate(2)" opacity="0.85" fill="url(#linear-gradient)" style="mix-blend-mode: overlay;isolation: isolate"/>
      <path id="Path_44" data-name="Path 44" d="M164.662,55.5c5.146,20.388,1.191,42.9,10,61.992,10.635,23.052,36.509,34.395,60.627,42.316s50.349,15.49,66.079,35.415c16.393,20.761,18.082,51.3,37.427,69.341,20.25,18.885,51.748,17,79.087,12.63s57.517-9.538,80.979,5.165C527.176,300.1,532.775,341.733,518.2,371.8s-44.132,50.081-74.5,64.024c-103.149,47.364-231.864,36.3-323.006-31.35S-18.424,214.18,6.586,103.468c6.8-30.1,18.727-73.556,44.367-93.667C71-5.924,109.216-.545,129.817,10.674A71.8,71.8,0,0,1,164.662,55.5Z" transform="translate(-105.75 503) rotate(2)" opacity="0.39" fill="url(#linear-gradient)" style="mix-blend-mode: overlay;isolation: isolate"/>
    </g>
  </g>
</svg>
